<svg width="59" height="59" viewBox="0 0 59 59" fill="none" xmlns="http://www.w3.org/2000/svg">
<rect width="58.7333" height="58.7333" rx="12" fill="#FFDAD6" fill-opacity="0.2"/>
<path d="M29.3667 42.7333C29.0111 42.7333 28.6722 42.6667 28.35 42.5333C28.0278 42.4 27.7333 42.2111 27.4667 41.9667L16.7667 31.2667C16.5222 31 16.3333 30.7056 16.2 30.3833C16.0667 30.0611 16 29.7222 16 29.3667C16 29.0111 16.0667 28.6667 16.2 28.3333C16.3333 28 16.5222 27.7111 16.7667 27.4667L27.4667 16.7667C27.7333 16.5 28.0278 16.3056 28.35 16.1833C28.6722 16.0611 29.0111 16 29.3667 16C29.7222 16 30.0667 16.0611 30.4 16.1833C30.7333 16.3056 31.0222 16.5 31.2667 16.7667L41.9667 27.4667C42.2333 27.7111 42.4278 28 42.55 28.3333C42.6722 28.6667 42.7333 29.0111 42.7333 29.3667C42.7333 29.7222 42.6722 30.0611 42.55 30.3833C42.4278 30.7056 42.2333 31 41.9667 31.2667L31.2667 41.9667C31.0222 42.2111 30.7333 42.4 30.4 42.5333C30.0667 42.6667 29.7222 42.7333 29.3667 42.7333V42.7333M29.3667 40.0667L40.0667 29.3667V29.3667V29.3667L29.3667 18.6667V18.6667V18.6667L18.6667 29.3667V29.3667V29.3667L29.3667 40.0667V40.0667V40.0667V40.0667M28.0333 30.7H30.7V22.7H28.0333V30.7V30.7M29.3667 34.7C29.7444 34.7 30.0611 34.5722 30.3167 34.3167C30.5722 34.0611 30.7 33.7444 30.7 33.3667C30.7 32.9889 30.5722 32.6722 30.3167 32.4167C30.0611 32.1611 29.7444 32.0333 29.3667 32.0333C28.9889 32.0333 28.6722 32.1611 28.4167 32.4167C28.1611 32.6722 28.0333 32.9889 28.0333 33.3667C28.0333 33.7444 28.1611 34.0611 28.4167 34.3167C28.6722 34.5722 28.9889 34.7 29.3667 34.7V34.7M29.3667 29.3667V29.3667V29.3667V29.3667V29.3667V29.3667V29.3667V29.3667V29.3667V29.3667V29.3667V29.3667V29.3667V29.3667" fill="#BA1A1A"/>
</svg>
