<svg width="60" height="70" viewBox="0 0 60 70" fill="none" xmlns="http://www.w3.org/2000/svg">
<path d="M20 6.66667V0H40V6.66667H20V6.66667M26.6667 43.3333H33.3333V23.3333H26.6667V43.3333V43.3333M30 70C25.8889 70 22.0139 69.2083 18.375 67.625C14.7361 66.0417 11.5556 63.8889 8.83333 61.1667C6.11111 58.4444 3.95833 55.2639 2.375 51.625C0.791667 47.9861 0 44.1111 0 40C0 35.8889 0.791667 32.0139 2.375 28.375C3.95833 24.7361 6.11111 21.5556 8.83333 18.8333C11.5556 16.1111 14.7361 13.9583 18.375 12.375C22.0139 10.7917 25.8889 10 30 10C33.4444 10 36.75 10.5556 39.9167 11.6667C43.0833 12.7778 46.0556 14.3889 48.8333 16.5L53.5 11.8333L58.1667 16.5L53.5 21.1667C55.6111 23.9444 57.2222 26.9167 58.3333 30.0833C59.4444 33.25 60 36.5556 60 40C60 44.1111 59.2083 47.9861 57.625 51.625C56.0417 55.2639 53.8889 58.4444 51.1667 61.1667C48.4444 63.8889 45.2639 66.0417 41.625 67.625C37.9861 69.2083 34.1111 70 30 70V70M30 63.3333C36.4444 63.3333 41.9444 61.0556 46.5 56.5C51.0556 51.9444 53.3333 46.4444 53.3333 40C53.3333 33.5556 51.0556 28.0556 46.5 23.5C41.9444 18.9444 36.4444 16.6667 30 16.6667C23.5556 16.6667 18.0556 18.9444 13.5 23.5C8.94444 28.0556 6.66667 33.5556 6.66667 40C6.66667 46.4444 8.94444 51.9444 13.5 56.5C18.0556 61.0556 23.5556 63.3333 30 63.3333V63.3333M30 40V40V40V40V40V40V40V40V40V40" fill="#191C1E"/>
</svg>
