<svg width="16" height="16" viewBox="0 0 16 16" fill="none" xmlns="http://www.w3.org/2000/svg">
<path d="M3.20312 2.92188C2.64062 2.92188 2.08333 2.9375 1.53125 2.96875C1.5625 2.66667 1.5625 2.36458 1.53125 2.0625C2.08333 2.08333 2.64062 2.09375 3.20312 2.09375H7.35938C7.38021 1.35417 7.35938 0.65625 7.29688 0C7.70312 0.0416667 8.10938 0.0416667 8.51562 0C8.45312 0.65625 8.43229 1.35417 8.45312 2.09375H13.6875C14.25 2.09375 14.8073 2.08333 15.3594 2.0625C15.3281 2.36458 15.3281 2.66667 15.3594 2.96875C14.8073 2.9375 14.25 2.92188 13.6875 2.92188H9.54688C10.2656 4.39062 11.2135 5.54688 12.3906 6.39062C13.0885 6.89062 14 7.3125 15.125 7.65625C14.7708 7.90625 14.5365 8.23958 14.4219 8.65625C13.099 8.26042 11.9271 7.54167 10.9062 6.5C9.88542 5.45833 9.0625 4.26562 8.4375 2.92188H8.375C8.1875 4.00521 7.6875 5.03125 6.875 6L7.64062 5.26562L9.65625 7.40625L8.78125 8.25L6.78125 6.10938C5.51042 7.55729 3.82812 8.56771 1.73438 9.14062C1.58854 8.65104 1.28125 8.3125 0.8125 8.125C2.47917 7.875 3.94792 7.20312 5.21875 6.10938C6.34375 5.15104 7.02604 4.08854 7.26562 2.92188H3.20312V2.92188M14.6406 14.4531C14.0156 13.5156 13.3333 12.6302 12.5938 11.7969L13.5312 11.0469C14.3125 11.9219 15.026 12.8542 15.6719 13.8438L14.6406 14.4531V14.4531M8.90625 12.4844C8.40625 11.599 7.78646 10.8125 7.04688 10.125L7.90625 9.29688C8.72917 10.0573 9.42188 10.9375 9.98438 11.9375L8.90625 12.4844V12.4844M12.0156 12.1406C12.3177 12.3281 12.6771 12.4375 13.0938 12.4688L12.6406 14.5312C12.599 14.7604 12.5052 14.9557 12.3594 15.1172C12.2135 15.2786 12.0365 15.3594 11.8281 15.3594H5.89062C5.42188 15.3594 5.03125 15.2188 4.71875 14.9375C4.40625 14.6562 4.25 14.276 4.25 13.7969V11.9844C4.25 11.2656 4.22917 10.5469 4.1875 9.82812C4.59375 9.86979 5.00521 9.86979 5.42188 9.82812C5.38021 10.5469 5.35938 11.2656 5.35938 11.9844V13.7969C5.35938 13.9635 5.41146 14.1094 5.51562 14.2344C5.61979 14.3594 5.75 14.4219 5.90625 14.4219H11.0312C11.2083 14.4115 11.3594 14.3411 11.4844 14.2109C11.6094 14.0807 11.6927 13.9219 11.7344 13.7344L12.0156 12.1406V12.1406M0 14.3438C0.677083 13.1875 1.29688 11.9792 1.85938 10.7188L2.98438 11.1719C2.41146 12.474 1.77083 13.724 1.0625 14.9219L0 14.3438V14.3438" fill="#404752"/>
</svg>
