<svg width="16" height="16" viewBox="0 0 16 16" fill="none" xmlns="http://www.w3.org/2000/svg">
<path d="M13.0781 13.2812V12.0625H7.89062V12.7969C7.89062 13.5156 7.91146 14.2344 7.95312 14.9531C7.56771 14.9115 7.17708 14.9115 6.78125 14.9531C6.82292 14.2344 6.83854 13.5156 6.82812 12.7969L6.8125 7.25H7.875V7.32812H14.1406V13.5938C14.1406 13.9792 13.9948 14.3073 13.7031 14.5781C13.2865 14.9531 12.5417 15.1354 11.4688 15.125C11.5833 14.6354 11.4688 14.2031 11.125 13.8281C11.4271 13.8698 11.7917 13.8932 12.2188 13.8984C12.6458 13.9036 12.8958 13.8724 12.9688 13.8047C13.0417 13.737 13.0781 13.5625 13.0781 13.2812V13.2812M15.8594 5.67188C15.8385 5.92188 15.8385 6.17188 15.8594 6.42188C15.401 6.40104 14.9375 6.39062 14.4688 6.39062H7.28125C6.82292 6.39062 6.36458 6.40104 5.90625 6.42188C5.92708 6.17188 5.92708 5.92188 5.90625 5.67188C6.36458 5.69271 6.82292 5.70312 7.28125 5.70312H9.89062V4.42188H7.875C7.40625 4.42188 6.94271 4.43229 6.48438 4.45312C6.50521 4.20312 6.50521 3.95312 6.48438 3.70312C6.94271 3.73438 7.40625 3.75 7.875 3.75H9.89062V2.53125H7.57812C7.07812 2.53125 6.57292 2.54167 6.0625 2.5625C6.09375 2.29167 6.09375 2.02083 6.0625 1.75C6.57292 1.77083 7.07812 1.78125 7.57812 1.78125H9.89062C9.89062 1.1875 9.875 0.59375 9.84375 0C10.2292 0.0416667 10.6198 0.0416667 11.0156 0C10.9844 0.59375 10.9635 1.1875 10.9531 1.78125H13.7344C14.2344 1.78125 14.7344 1.77083 15.2344 1.75C15.2135 2.02083 15.2135 2.29167 15.2344 2.5625C14.7344 2.54167 14.2344 2.53125 13.7344 2.53125H10.9531V3.75H13.2812C13.7396 3.75 14.1979 3.73438 14.6562 3.70312C14.6354 3.95312 14.6354 4.20312 14.6562 4.45312C14.1979 4.43229 13.7396 4.42188 13.2812 4.42188H10.9531V5.70312H14.4688C14.9375 5.70312 15.401 5.69271 15.8594 5.67188V5.67188M13.0781 9.34375V7.90625H7.875C7.875 8.40625 7.88021 8.88542 7.89062 9.34375H13.0781V9.34375M13.0781 11.3906V10.0312H7.89062V11.3906H13.0781V11.3906M3.51562 13.0781C3.51562 13.7969 3.53125 14.5156 3.5625 15.2344C3.19792 15.1927 2.82812 15.1927 2.45312 15.2344C2.48438 14.5156 2.5 13.7969 2.5 13.0781V2.3125C2.5 1.59375 2.48438 0.880208 2.45312 0.171875C2.82812 0.213542 3.19792 0.213542 3.5625 0.171875C3.53125 0.880208 3.51562 1.59375 3.51562 2.3125V3.60938L3.90625 3.29688L5.59375 5.64062L4.70312 6.34375L3.51562 4.67188V13.0781V13.0781M0 7.15625C0.427083 6.11458 0.791667 5.01562 1.09375 3.85938L2.15625 4.17188C1.84375 5.36979 1.46875 6.51562 1.03125 7.60938L0 7.15625V7.15625" fill="#0060A9"/>
</svg>
