<svg width="24" height="28" viewBox="0 0 24 28" fill="none" xmlns="http://www.w3.org/2000/svg">
<path d="M4 21V19H6V12C6 10.6167 6.41667 9.3875 7.25 8.3125C8.08333 7.2375 9.16667 6.53333 10.5 6.2V5.5C10.5 5.08333 10.6458 4.72917 10.9375 4.4375C11.2292 4.14583 11.5833 4 12 4C12.4167 4 12.7708 4.14583 13.0625 4.4375C13.3542 4.72917 13.5 5.08333 13.5 5.5V6.2C14.8333 6.53333 15.9167 7.2375 16.75 8.3125C17.5833 9.3875 18 10.6167 18 12V19H20V21H4V21M12 13.5V13.5V13.5V13.5V13.5V13.5V13.5V13.5V13.5M12 24C11.45 24 10.9792 23.8042 10.5875 23.4125C10.1958 23.0208 10 22.55 10 22H14C14 22.55 13.8042 23.0208 13.4125 23.4125C13.0208 23.8042 12.55 24 12 24V24M8 19H16V12C16 10.9 15.6083 9.95833 14.825 9.175C14.0417 8.39167 13.1 8 12 8C10.9 8 9.95833 8.39167 9.175 9.175C8.39167 9.95833 8 10.9 8 12V19V19" fill="#404752"/>
</svg>
