<svg width="16" height="15" viewBox="0 0 16 15" fill="none" xmlns="http://www.w3.org/2000/svg">
<path d="M12.8594 7.21875V2.20312C12.8594 1.46354 12.8385 0.729167 12.7969 0C13.1927 0.0416667 13.5885 0.0416667 13.9844 0C13.9531 0.729167 13.9375 1.46354 13.9375 2.20312V7.60938C13.9375 8.05729 13.7865 8.42708 13.4844 8.71875C13.0156 9.125 12.2344 9.30729 11.1406 9.26562C11.2552 8.75521 11.1354 8.3125 10.7812 7.9375C11.1042 7.97917 11.4844 8.0026 11.9219 8.00781C12.3594 8.01302 12.625 7.97656 12.7188 7.89844C12.8125 7.82031 12.8594 7.59375 12.8594 7.21875V7.21875M10.8906 7.09375C10.4948 7.05208 10.0938 7.05208 9.6875 7.09375C9.72917 6.35417 9.75 5.61979 9.75 4.89062V3.1875C9.75 2.45833 9.72917 1.72917 9.6875 1C10.0938 1.04167 10.4948 1.04167 10.8906 1C10.849 1.72917 10.8281 2.45833 10.8281 3.1875V4.89062C10.8281 5.61979 10.849 6.35417 10.8906 7.09375V7.09375M6.67188 8.65625C6.27604 8.61458 5.88021 8.61458 5.48438 8.65625C5.51562 7.92708 5.53125 7.19792 5.53125 6.46875V4.6875H3.59375C3.63542 5.875 3.4349 6.86719 2.99219 7.66406C2.54948 8.46094 1.98438 9.07292 1.29688 9.5C1.10938 9.10417 0.8125 8.82292 0.40625 8.65625C1.05208 8.38542 1.5625 7.94271 1.9375 7.32812C2.35417 6.64062 2.54167 5.76042 2.5 4.6875H1.625C1.08333 4.6875 0.541667 4.70312 0 4.73438C0.03125 4.44271 0.03125 4.15104 0 3.85938C0.541667 3.88021 1.08333 3.89062 1.625 3.89062H2.5V1.3125L0.84375 1.34375C0.875 1.05208 0.875 0.760417 0.84375 0.46875C1.375 0.5 1.91146 0.515625 2.45312 0.515625H6.625C7.16667 0.515625 7.70833 0.5 8.25 0.46875C8.21875 0.760417 8.21875 1.05208 8.25 1.34375C7.70833 1.32292 7.16667 1.3125 6.625 1.3125V3.89062L8.6875 3.85938C8.65625 4.15104 8.65625 4.44271 8.6875 4.73438L6.625 4.6875V6.46875C6.625 7.19792 6.64062 7.92708 6.67188 8.65625V8.65625M5.53125 3.89062V1.3125H3.59375V3.89062H5.53125V3.89062M15.0781 13.8906C15.0365 14.1615 15.0365 14.4375 15.0781 14.7188C14.4948 14.6875 13.9115 14.6719 13.3281 14.6719H1.76562C1.18229 14.6719 0.598958 14.6875 0.015625 14.7188C0.0572917 14.4375 0.0572917 14.1615 0.015625 13.8906C0.598958 13.9115 1.18229 13.9219 1.76562 13.9219H6.9375V11.5469H3.20312C2.61979 11.5469 2.04167 11.5573 1.46875 11.5781C1.5 11.2969 1.5 11.0208 1.46875 10.75C2.04167 10.7708 2.61979 10.7812 3.20312 10.7812H6.9375L6.875 8.76562C7.28125 8.80729 7.6875 8.80729 8.09375 8.76562L8.04688 10.7812H11.8906C12.474 10.7812 13.0521 10.7708 13.625 10.75C13.5938 11.0208 13.5938 11.2969 13.625 11.5781C13.0521 11.5573 12.474 11.5469 11.8906 11.5469H8.04688V13.9219H13.3281C13.9115 13.9219 14.4948 13.9115 15.0781 13.8906V13.8906" fill="#404752"/>
</svg>
