<svg width="16" height="16" viewBox="0 0 16 16" fill="none" xmlns="http://www.w3.org/2000/svg">
<path d="M6.89062 0C7.36979 0.0520833 7.85417 0.0520833 8.34375 0C8.34375 0.979167 8.30208 1.89062 8.21875 2.73438C8.33333 3.92188 8.56771 5.14062 8.92188 6.39062C9.94271 9.83854 12.0208 12.2656 15.1562 13.6719C14.7292 13.8698 14.4167 14.1875 14.2188 14.625C12.4479 13.75 11.0312 12.526 9.96875 10.9531C8.94792 9.50521 8.1875 7.84375 7.6875 5.96875C6.61458 10.3333 4.33854 13.3906 0.859375 15.1406C0.692708 14.6719 0.40625 14.2969 0 14.0156C1.15625 13.4635 2.20312 12.7422 3.14062 11.8516C4.07812 10.9609 4.84115 9.92969 5.42969 8.75781C6.01823 7.58594 6.40885 6.29948 6.60156 4.89844C6.79427 3.4974 6.89062 1.86458 6.89062 0V0" fill="#404752"/>
</svg>
