<svg width="64" height="64" viewBox="0 0 64 64" fill="none" xmlns="http://www.w3.org/2000/svg">
<mask id="path-1-inside-1_65_512" fill="white">
<path d="M0 32C0 14.3269 14.3269 0 32 0V0C49.6731 0 64 14.3269 64 32V32C64 49.6731 49.6731 64 32 64V64C14.3269 64 0 49.6731 0 32V32Z"/>
</mask>
<g clip-path="url(#paint0_diamond_65_512_clip_path)" data-figma-skip-parse="true" mask="url(#path-1-inside-1_65_512)"><g transform="matrix(0.032 0 0 0.032 32 0)"><rect x="0" y="0" width="1093.75" height="2093.75" fill="url(#paint0_diamond_65_512)" opacity="1" shape-rendering="crispEdges"/><rect x="0" y="0" width="1093.75" height="2093.75" transform="scale(1 -1)" fill="url(#paint0_diamond_65_512)" opacity="1" shape-rendering="crispEdges"/><rect x="0" y="0" width="1093.75" height="2093.75" transform="scale(-1 1)" fill="url(#paint0_diamond_65_512)" opacity="1" shape-rendering="crispEdges"/><rect x="0" y="0" width="1093.75" height="2093.75" transform="scale(-1)" fill="url(#paint0_diamond_65_512)" opacity="1" shape-rendering="crispEdges"/></g></g><path d="M0 32M64 32M64 32M0 32M32 0M64 32M32 64M0 32M32 64V61C15.9837 61 3 48.0163 3 32H0H-3C-3 51.33 12.67 67 32 67V64ZM64 32H61C61 48.0163 48.0163 61 32 61V64V67C51.33 67 67 51.33 67 32H64ZM32 0V3C48.0163 3 61 15.9837 61 32H64H67C67 12.67 51.33 -3 32 -3V0ZM32 0V-3C12.67 -3 -3 12.67 -3 32H0H3C3 15.9837 15.9837 3 32 3V0Z" data-figma-gradient-fill="{&#34;type&#34;:&#34;GRADIENT_DIAMOND&#34;,&#34;stops&#34;:[{&#34;color&#34;:{&#34;r&#34;:0.17254902422428131,&#34;g&#34;:0.44705882668495178,&#34;b&#34;:0.85490196943283081,&#34;a&#34;:1.0},&#34;position&#34;:0.99999988079071045},{&#34;color&#34;:{&#34;r&#34;:0.0,&#34;g&#34;:0.0,&#34;b&#34;:0.0,&#34;a&#34;:0.0},&#34;position&#34;:1.0}],&#34;stopsVar&#34;:[],&#34;transform&#34;:{&#34;m00&#34;:64.0,&#34;m01&#34;:0.0,&#34;m02&#34;:0.0,&#34;m10&#34;:0.0,&#34;m11&#34;:64.0,&#34;m12&#34;:-32.0},&#34;opacity&#34;:1.0,&#34;blendMode&#34;:&#34;NORMAL&#34;,&#34;visible&#34;:true}" mask="url(#path-1-inside-1_65_512)"/>
<defs>
<clipPath id="paint0_diamond_65_512_clip_path"><path d="M0 32M64 32M64 32M0 32M32 0M64 32M32 64M0 32M32 64V61C15.9837 61 3 48.0163 3 32H0H-3C-3 51.33 12.67 67 32 67V64ZM64 32H61C61 48.0163 48.0163 61 32 61V64V67C51.33 67 67 51.33 67 32H64ZM32 0V3C48.0163 3 61 15.9837 61 32H64H67C67 12.67 51.33 -3 32 -3V0ZM32 0V-3C12.67 -3 -3 12.67 -3 32H0H3C3 15.9837 15.9837 3 32 3V0Z" mask="url(#path-1-inside-1_65_512)"/></clipPath><linearGradient id="paint0_diamond_65_512" x1="0" y1="0" x2="500" y2="500" gradientUnits="userSpaceOnUse">
<stop offset="1" stop-color="#2C72DA"/>
<stop offset="1" stop-opacity="0"/>
</linearGradient>
</defs>
</svg>
