<svg width="11" height="10" viewBox="0 0 11 10" fill="none" xmlns="http://www.w3.org/2000/svg">
<path d="M2 10V8.66667H6.73333C7.43333 8.66667 8.04167 8.44444 8.55833 8C9.075 7.55556 9.33333 7 9.33333 6.33333C9.33333 5.66667 9.075 5.11111 8.55833 4.66667C8.04167 4.22222 7.43333 4 6.73333 4H2.53333L4.26667 5.73333L3.33333 6.66667L0 3.33333L3.33333 0L4.26667 0.933333L2.53333 2.66667H6.73333C7.81111 2.66667 8.73611 3.01667 9.50833 3.71667C10.2806 4.41667 10.6667 5.28889 10.6667 6.33333C10.6667 7.37778 10.2806 8.25 9.50833 8.95C8.73611 9.65 7.81111 10 6.73333 10H2V10" fill="#BA1A1A"/>
</svg>
