<svg width="20" height="15" viewBox="0 0 20 15" fill="none" xmlns="http://www.w3.org/2000/svg">
<path d="M0 14.4V11.88C0 11.37 0.13125 10.9012 0.39375 10.4737C0.65625 10.0462 1.005 9.72 1.44 9.495C2.37 9.03 3.315 8.68125 4.275 8.44875C5.235 8.21625 6.21 8.1 7.2 8.1C8.19 8.1 9.165 8.21625 10.125 8.44875C11.085 8.68125 12.03 9.03 12.96 9.495C13.395 9.72 13.7437 10.0462 14.0062 10.4737C14.2687 10.9012 14.4 11.37 14.4 11.88V14.4H0V14.4M16.2 14.4V11.7C16.2 11.04 16.0163 10.4062 15.6488 9.79875C15.2813 9.19125 14.76 8.67 14.085 8.235C14.85 8.325 15.57 8.47875 16.245 8.69625C16.92 8.91375 17.55 9.18 18.135 9.495C18.675 9.795 19.0875 10.1288 19.3725 10.4963C19.6575 10.8638 19.8 11.265 19.8 11.7V14.4H16.2V14.4M7.2 7.2C6.21 7.2 5.3625 6.8475 4.6575 6.1425C3.9525 5.4375 3.6 4.59 3.6 3.6C3.6 2.61 3.9525 1.7625 4.6575 1.0575C5.3625 0.3525 6.21 0 7.2 0C8.19 0 9.0375 0.3525 9.7425 1.0575C10.4475 1.7625 10.8 2.61 10.8 3.6C10.8 4.59 10.4475 5.4375 9.7425 6.1425C9.0375 6.8475 8.19 7.2 7.2 7.2V7.2M16.2 3.6C16.2 4.59 15.8475 5.4375 15.1425 6.1425C14.4375 6.8475 13.59 7.2 12.6 7.2C12.435 7.2 12.225 7.18125 11.97 7.14375C11.715 7.10625 11.505 7.065 11.34 7.02C11.745 6.54 12.0562 6.0075 12.2737 5.4225C12.4912 4.8375 12.6 4.23 12.6 3.6C12.6 2.97 12.4912 2.3625 12.2737 1.7775C12.0562 1.1925 11.745 0.66 11.34 0.18C11.55 0.105 11.76 0.05625 11.97 0.03375C12.18 0.01125 12.39 0 12.6 0C13.59 0 14.4375 0.3525 15.1425 1.0575C15.8475 1.7625 16.2 2.61 16.2 3.6V3.6" fill="#0058BB"/>
</svg>
