<svg width="45" height="45" viewBox="0 0 45 45" fill="none" xmlns="http://www.w3.org/2000/svg">
<path d="M5 45C3.625 45 2.44792 44.5104 1.46875 43.5312C0.489583 42.5521 0 41.375 0 40V5C0 3.625 0.489583 2.44792 1.46875 1.46875C2.44792 0.489583 3.625 0 5 0H40C41.375 0 42.5521 0.489583 43.5312 1.46875C44.5104 2.44792 45 3.625 45 5V40C45 41.375 44.5104 42.5521 43.5312 43.5312C42.5521 44.5104 41.375 45 40 45H5V45M5 40H40V40V40V32.5H32.5C31.25 34.0833 29.7604 35.3125 28.0312 36.1875C26.3021 37.0625 24.4583 37.5 22.5 37.5C20.5417 37.5 18.6979 37.0625 16.9688 36.1875C15.2396 35.3125 13.75 34.0833 12.5 32.5H5V40V40V40V40M22.5 32.5C24.0833 32.5 25.5208 32.0417 26.8125 31.125C28.1042 30.2083 29 29 29.5 27.5H40V5V5V5H5V5V5V27.5H15.5C16 29 16.8958 30.2083 18.1875 31.125C19.4792 32.0417 20.9167 32.5 22.5 32.5V32.5M5 40V40V40V40H12.5C13.75 40 15.2396 40 16.9688 40C18.6979 40 20.5417 40 22.5 40C24.4583 40 26.3021 40 28.0312 40C29.7604 40 31.25 40 32.5 40H40V40V40V40H5V40" fill="#727784"/>
</svg>
