<svg width="10" height="11" viewBox="0 0 10 11" fill="none" xmlns="http://www.w3.org/2000/svg">
<path d="M2.33105 7.21875V2.36328L9.73242 2.3418V6.14453H8.92676V5.79004H3.12598V7.21875C3.12598 8.02083 2.88249 8.74235 2.39551 9.3833C1.90853 10.0243 1.29622 10.4665 0.558594 10.71C0.472656 10.3949 0.286458 10.1514 0 9.97949C0.666016 9.86491 1.22103 9.54801 1.66504 9.02881C2.10905 8.5096 2.33105 7.90625 2.33105 7.21875V7.21875M5.81152 2.32031C5.46061 1.69727 5.05957 1.10645 4.6084 0.547852L5.30664 0C5.7793 0.594401 6.20182 1.22103 6.57422 1.87988L5.81152 2.32031V2.32031M3.12598 5.11328H8.92676V3.0293L3.12598 3.04004V5.11328V5.11328" fill="#004881"/>
</svg>
