<svg width="15" height="16" viewBox="0 0 15 16" fill="none" xmlns="http://www.w3.org/2000/svg">
<path d="M8.0625 4.4375V2.35938C8.0625 1.57812 8.04167 0.791667 8 0C8.42708 0.0520833 8.85417 0.0520833 9.28125 0C9.23958 0.791667 9.21875 1.57812 9.21875 2.35938V4.53125C9.75 7.54167 10.8177 9.97396 12.4219 11.8281C13.0573 12.5885 13.7604 13.2812 14.5312 13.9062C14.0833 14 13.7135 14.224 13.4219 14.5781C11.4115 12.9219 9.90625 10.5781 8.90625 7.54688C8.1875 10.7656 6.60938 13.1615 4.17188 14.7344C3.88021 14.2969 3.47396 14.0521 2.95312 14C4.53646 13.1771 5.78385 11.9583 6.69531 10.3438C7.60677 8.72917 8.0625 6.76042 8.0625 4.4375V4.4375M1.34375 15.0156C0.895833 14.974 0.447917 14.974 0 15.0156C0.0416667 14.2969 0.0625 13.5729 0.0625 12.8438L0.046875 0.546875H5.5V1.32812C5.29167 1.51562 5.11458 1.72396 4.96875 1.95312L3.26562 4.79688C4.60938 6.32812 5.28125 8.0625 5.28125 10C5.20833 11.2604 4.61979 12.0885 3.51562 12.4844L3.04688 12.6719C2.82812 12.3177 2.56771 11.9896 2.26562 11.6875C2.57812 11.5938 2.88021 11.4896 3.17188 11.375C3.77604 11.1458 4.10417 10.6875 4.15625 10C4.15625 9.02083 3.97135 8.06771 3.60156 7.14062C3.23177 6.21354 2.69271 5.36979 1.98438 4.60938L3.96875 1.32812H1.26562L1.28125 12.8438C1.28125 13.5729 1.30208 14.2969 1.34375 15.0156V15.0156" fill="#191C1E"/>
</svg>
