<svg width="13" height="12" viewBox="0 0 13 12" fill="none" xmlns="http://www.w3.org/2000/svg">
<path d="M5.39551 6.69043V5.47168C5.39551 4.85384 5.37858 4.236 5.34473 3.61816C5.68327 3.65202 6.02181 3.65202 6.36035 3.61816C6.3265 4.236 6.30957 4.85384 6.30957 5.47168V6.69043C6.30957 7.0459 6.25033 7.40137 6.13184 7.75684C8.18001 8.53548 10.0335 9.63574 11.6924 11.0576L11.0322 11.8193C9.44108 10.4567 7.66374 9.40723 5.7002 8.6709C5.22624 9.40723 4.5555 10.0399 3.68799 10.5688C2.82048 11.0978 1.92122 11.4554 0.990234 11.6416C0.897135 11.2269 0.664388 10.9307 0.291992 10.7529C1.14681 10.6683 1.96566 10.4313 2.74854 10.042C3.53141 9.65267 4.16829 9.15755 4.65918 8.55664C5.15007 7.95573 5.39551 7.33366 5.39551 6.69043V6.69043M3.11035 8.53125C2.77181 8.4974 2.43327 8.4974 2.09473 8.53125C2.12858 7.91341 2.14551 7.29557 2.14551 6.67773V2.34863H4.41797C4.77344 1.95931 5.12467 1.43034 5.47168 0.761719H1.47266C0.981771 0.761719 0.490885 0.774414 0 0.799805C0.0253906 0.537435 0.0253906 0.270833 0 0C0.490885 0.0253906 0.981771 0.0380859 1.47266 0.0380859H10.7148C11.2057 0.0380859 11.7008 0.0253906 12.2002 0C12.1663 0.270833 12.1663 0.537435 12.2002 0.799805C11.7008 0.774414 11.2057 0.761719 10.7148 0.761719H6.56348C6.39421 1.2526 6.08105 1.78158 5.62402 2.34863H10.0674V8.48047H9.15332V3.08496H4.97656L4.90039 3.16113C4.88346 3.13574 4.86654 3.11035 4.84961 3.08496H3.05957V6.67773C3.05957 7.29557 3.0765 7.91341 3.11035 8.53125V8.53125" fill="#404752"/>
</svg>
