<svg width="28" height="14" viewBox="0 0 28 14" fill="none" xmlns="http://www.w3.org/2000/svg">
<path d="M9.99414 11.375C9.99414 12.0221 10.0078 12.6738 10.0352 13.3301C9.6888 13.2936 9.33789 13.2936 8.98242 13.3301C9.00977 12.6738 9.02344 12.0221 9.02344 11.375V6.67188C8.23047 8.47656 7.25977 9.9987 6.11133 11.2383C5.86523 10.9284 5.54622 10.7279 5.1543 10.6367C6.47591 9.28776 7.41471 7.96615 7.9707 6.67188C8.35352 5.74219 8.6862 4.77604 8.96875 3.77344L9.02344 3.78711V3.74609H8.46289C7.9707 3.74609 7.48307 3.75977 7 3.78711C7.02734 3.52279 7.02734 3.25846 7 2.99414C7.48307 3.01237 7.9707 3.02148 8.46289 3.02148H9.02344V2.0918C9.02344 1.44466 9.00977 0.797526 8.98242 0.150391C9.33789 0.186849 9.6888 0.186849 10.0352 0.150391C10.0078 0.797526 9.99414 1.44466 9.99414 2.0918V3.02148H11.6895C12.1816 3.02148 12.6693 3.01237 13.1523 2.99414C13.125 3.25846 13.125 3.52279 13.1523 3.78711C12.6693 3.75977 12.1816 3.74609 11.6895 3.74609H10.2539C10.5547 5.22266 10.9648 6.43717 11.4844 7.38965C12.0039 8.34212 12.7376 9.28776 13.6855 10.2266C13.3118 10.2721 12.9928 10.4362 12.7285 10.7188C11.571 9.57031 10.6595 8.02083 9.99414 6.07031V11.375V11.375M1.05273 11.0742C0.788411 10.8281 0.4375 10.6777 0 10.623C0.355469 10.1035 0.754232 9.47005 1.19629 8.72266C1.63835 7.97526 2.00977 7.19596 2.31055 6.38477C2.61133 5.57357 2.88021 4.76237 3.11719 3.95117H2.07812C1.55859 3.95117 1.03906 3.96484 0.519531 3.99219C0.55599 3.70052 0.55599 3.40885 0.519531 3.11719C1.03906 3.14453 1.55859 3.1582 2.07812 3.1582H3.36328V2.32422C3.36328 1.65885 3.34961 0.99349 3.32227 0.328125C3.67773 0.364583 4.02865 0.364583 4.375 0.328125C4.34766 0.99349 4.33398 1.65885 4.33398 2.32422V3.1582L6.19336 3.11719C6.16602 3.40885 6.16602 3.70052 6.19336 3.99219L4.33398 3.95117V5.66016L4.75781 5.3457C5.35938 6.19336 5.91081 7.09115 6.41211 8.03906L5.48242 8.55859C5.24544 8.10286 4.99479 7.66081 4.73047 7.23242L4.33398 6.61719V11.498C4.33398 12.1634 4.34766 12.8333 4.375 13.5078C4.02865 13.4714 3.67773 13.4714 3.32227 13.5078C3.34961 12.8333 3.36328 12.1634 3.36328 11.498V6.31641C2.66146 8.20312 1.89128 9.78906 1.05273 11.0742V11.0742M24.2402 13.3301C23.8757 13.2936 23.5111 13.2936 23.1465 13.3301C23.1829 12.6647 23.2012 11.9948 23.2012 11.3203V8.72266C23.2012 8.04818 23.1829 7.37826 23.1465 6.71289C23.5111 6.74935 23.8757 6.74935 24.2402 6.71289C24.2038 7.37826 24.1855 8.04818 24.1855 8.72266V11.3203C24.1855 11.9948 24.2038 12.6647 24.2402 13.3301V13.3301M18.7578 6.78125C19.1589 6.82682 19.5553 6.82682 19.9473 6.78125C20.0111 7.17318 20.0247 7.60156 19.9883 8.06641C19.9518 8.53125 19.8971 8.99382 19.8242 9.4541C19.7513 9.91439 19.6191 10.3724 19.4277 10.8281C19.2363 11.2839 19.013 11.6986 18.7578 12.0723C18.2383 12.8561 17.4818 13.3984 16.4883 13.6992C16.2513 13.2708 15.9141 12.9473 15.4766 12.7285C17.1536 12.5827 18.2337 11.612 18.7168 9.81641C18.9902 8.80469 19.0039 7.79297 18.7578 6.78125V6.78125M16.7617 4.16992C16.224 4.16992 15.6908 4.18359 15.1621 4.21094C15.1895 3.92839 15.1895 3.64128 15.1621 3.34961C15.6908 3.37695 16.224 3.39062 16.7617 3.39062H19.127C19.3639 2.69792 19.5371 2.06901 19.6465 1.50391C18.4707 1.52214 17.6208 1.55404 17.0967 1.59961C16.5726 1.64518 16.265 1.66797 16.1738 1.66797L15.6133 0.710938C16.0964 0.720052 16.6751 0.729167 17.3496 0.738281C18.0241 0.747396 19.0768 0.724609 20.5078 0.669922C21.9388 0.615234 22.9482 0.533203 23.5361 0.423828C24.124 0.314453 24.6185 0.173177 25.0195 0C25.0651 0.382812 25.1562 0.751953 25.293 1.10742C24.4544 1.32617 22.946 1.45378 20.7676 1.49023C20.6673 2.13737 20.5124 2.77083 20.3027 3.39062H25.8809C26.4095 3.39062 26.9427 3.37695 27.4805 3.34961C27.444 3.64128 27.444 3.92839 27.4805 4.21094C26.9427 4.18359 26.4095 4.16992 25.8809 4.16992H23.6113C24.0762 5.09049 24.5957 5.8265 25.1699 6.37793C25.7441 6.92936 26.5098 7.41927 27.4668 7.84766C27.1113 8.02995 26.8561 8.29883 26.7012 8.6543C25.6895 8.15299 24.8418 7.4694 24.1582 6.60352C23.5475 5.85612 23.0326 5.04492 22.6133 4.16992H20.002C19.4915 5.3457 18.8034 6.38477 17.9375 7.28711C17.0716 8.18945 16.0827 8.89128 14.9707 9.39258C14.8522 9.00065 14.6335 8.67708 14.3145 8.42188C15.4902 7.95703 16.5202 7.28255 17.4043 6.39844C18.0514 5.76953 18.5345 5.02669 18.8535 4.16992H16.7617V4.16992" fill="#191C1E"/>
</svg>
