<svg width="26" height="26" viewBox="0 0 26 26" fill="none" xmlns="http://www.w3.org/2000/svg">
<path d="M13 22C10.7 22 8.69583 21.2375 6.9875 19.7125C5.27917 18.1875 4.3 16.2833 4.05 14H6.1C6.33333 15.7333 7.10417 17.1667 8.4125 18.3C9.72083 19.4333 11.25 20 13 20C14.95 20 16.6042 19.3208 17.9625 17.9625C19.3208 16.6042 20 14.95 20 13C20 11.05 19.3208 9.39583 17.9625 8.0375C16.6042 6.67917 14.95 6 13 6C11.85 6 10.775 6.26667 9.775 6.8C8.775 7.33333 7.93333 8.06667 7.25 9H10V11H4V5H6V7.35C6.85 6.28333 7.8875 5.45833 9.1125 4.875C10.3375 4.29167 11.6333 4 13 4C14.25 4 15.4208 4.2375 16.5125 4.7125C17.6042 5.1875 18.5542 5.82917 19.3625 6.6375C20.1708 7.44583 20.8125 8.39583 21.2875 9.4875C21.7625 10.5792 22 11.75 22 13C22 14.25 21.7625 15.4208 21.2875 16.5125C20.8125 17.6042 20.1708 18.5542 19.3625 19.3625C18.5542 20.1708 17.6042 20.8125 16.5125 21.2875C15.4208 21.7625 14.25 22 13 22V22M15.8 17.2L12 13.4V8H14V12.6L17.2 15.8L15.8 17.2V17.2" fill="#404752"/>
</svg>
