<svg width="18" height="20" viewBox="0 0 18 20" fill="none" xmlns="http://www.w3.org/2000/svg">
<path d="M13 20C11.6167 20 10.4375 19.5125 9.4625 18.5375C8.4875 17.5625 8 16.3833 8 15C8 13.6167 8.4875 12.4375 9.4625 11.4625C10.4375 10.4875 11.6167 10 13 10C14.3833 10 15.5625 10.4875 16.5375 11.4625C17.5125 12.4375 18 13.6167 18 15C18 16.3833 17.5125 17.5625 16.5375 18.5375C15.5625 19.5125 14.3833 20 13 20V20M8 20C5.68333 19.4167 3.77083 18.0875 2.2625 16.0125C0.754167 13.9375 0 11.6333 0 9.1V3L8 0L16 3V8.675C15.5667 8.45833 15.0792 8.29167 14.5375 8.175C13.9958 8.05833 13.4833 8 13 8C11.0667 8 9.41667 8.68333 8.05 10.05C6.68333 11.4167 6 13.0667 6 15C6 16.0333 6.19583 16.9667 6.5875 17.8C6.97917 18.6333 7.475 19.3583 8.075 19.975C8.05833 19.975 8.04583 19.9792 8.0375 19.9875C8.02917 19.9958 8.01667 20 8 20V20M12.5 18H13.5V15.5H16V14.5H13.5V12H12.5V14.5H10V15.5H12.5V18V18" fill="#006B5C"/>
</svg>
