<svg width="26" height="24" viewBox="0 0 26 24" fill="none" xmlns="http://www.w3.org/2000/svg">
<path d="M11.6667 14V14V14V14V14V14V14V14V14V14V14V14V14V14V14V14V14V14M2.33333 23.3333C1.69167 23.3333 1.14236 23.1049 0.685417 22.6479C0.228472 22.191 0 21.6417 0 21V7C0 6.35833 0.228472 5.80903 0.685417 5.35208C1.14236 4.89514 1.69167 4.66667 2.33333 4.66667H6.00833L8.16667 2.33333H15.1667V4.66667H9.1875L7.05833 7H2.33333V7V7V21V21V21H21V21V21V10.5H23.3333V21C23.3333 21.6417 23.1049 22.191 22.6479 22.6479C22.191 23.1049 21.6417 23.3333 21 23.3333H2.33333V23.3333M21 7V4.66667H18.6667V2.33333H21V0H23.3333V2.33333H25.6667V4.66667H23.3333V7H21V7M11.6667 19.25C13.125 19.25 14.3646 18.7396 15.3854 17.7188C16.4063 16.6979 16.9167 15.4583 16.9167 14C16.9167 12.5417 16.4063 11.3021 15.3854 10.2812C14.3646 9.26042 13.125 8.75 11.6667 8.75C10.2083 8.75 8.96875 9.26042 7.94792 10.2812C6.92708 11.3021 6.41667 12.5417 6.41667 14C6.41667 15.4583 6.92708 16.6979 7.94792 17.7188C8.96875 18.7396 10.2083 19.25 11.6667 19.25V19.25M11.6667 16.9167C10.85 16.9167 10.1597 16.6347 9.59583 16.0708C9.03194 15.5069 8.75 14.8167 8.75 14C8.75 13.1833 9.03194 12.4931 9.59583 11.9292C10.1597 11.3653 10.85 11.0833 11.6667 11.0833C12.4833 11.0833 13.1736 11.3653 13.7375 11.9292C14.3014 12.4931 14.5833 13.1833 14.5833 14C14.5833 14.8167 14.3014 15.5069 13.7375 16.0708C13.1736 16.6347 12.4833 16.9167 11.6667 16.9167V16.9167" fill="#727784"/>
</svg>
