<svg width="37" height="36" viewBox="0 0 37 36" fill="none" xmlns="http://www.w3.org/2000/svg">
<path d="M15.3 28L14.9 24.8C14.6833 24.7167 14.4792 24.6167 14.2875 24.5C14.0958 24.3833 13.9083 24.2583 13.725 24.125L10.75 25.375L8 20.625L10.575 18.675C10.5583 18.5583 10.55 18.4458 10.55 18.3375C10.55 18.2292 10.55 18.1167 10.55 18C10.55 17.8833 10.55 17.7708 10.55 17.6625C10.55 17.5542 10.5583 17.4417 10.575 17.325L8 15.375L10.75 10.625L13.725 11.875C13.9083 11.7417 14.1 11.6167 14.3 11.5C14.5 11.3833 14.7 11.2833 14.9 11.2L15.3 8H20.8L21.2 11.2C21.4167 11.2833 21.6208 11.3833 21.8125 11.5C22.0042 11.6167 22.1917 11.7417 22.375 11.875L25.35 10.625L28.1 15.375L25.525 17.325C25.5417 17.4417 25.55 17.5542 25.55 17.6625C25.55 17.7708 25.55 17.8833 25.55 18C25.55 18.1167 25.55 18.2292 25.55 18.3375C25.55 18.4458 25.5333 18.5583 25.5 18.675L28.075 20.625L25.325 25.375L22.375 24.125C22.1917 24.2583 22 24.3833 21.8 24.5C21.6 24.6167 21.4 24.7167 21.2 24.8L20.8 28H15.3V28M17.05 26H19.025L19.375 23.35C19.8917 23.2167 20.3708 23.0208 20.8125 22.7625C21.2542 22.5042 21.6583 22.1917 22.025 21.825L24.5 22.85L25.475 21.15L23.325 19.525C23.4083 19.2917 23.4667 19.0458 23.5 18.7875C23.5333 18.5292 23.55 18.2667 23.55 18C23.55 17.7333 23.5333 17.4708 23.5 17.2125C23.4667 16.9542 23.4083 16.7083 23.325 16.475L25.475 14.85L24.5 13.15L22.025 14.2C21.6583 13.8167 21.2542 13.4958 20.8125 13.2375C20.3708 12.9792 19.8917 12.7833 19.375 12.65L19.05 10H17.075L16.725 12.65C16.2083 12.7833 15.7292 12.9792 15.2875 13.2375C14.8458 13.4958 14.4417 13.8083 14.075 14.175L11.6 13.15L10.625 14.85L12.775 16.45C12.6917 16.7 12.6333 16.95 12.6 17.2C12.5667 17.45 12.55 17.7167 12.55 18C12.55 18.2667 12.5667 18.525 12.6 18.775C12.6333 19.025 12.6917 19.275 12.775 19.525L10.625 21.15L11.6 22.85L14.075 21.8C14.4417 22.1833 14.8458 22.5042 15.2875 22.7625C15.7292 23.0208 16.2083 23.2167 16.725 23.35L17.05 26V26M18.1 21.5C19.0667 21.5 19.8917 21.1583 20.575 20.475C21.2583 19.7917 21.6 18.9667 21.6 18C21.6 17.0333 21.2583 16.2083 20.575 15.525C19.8917 14.8417 19.0667 14.5 18.1 14.5C17.1167 14.5 16.2875 14.8417 15.6125 15.525C14.9375 16.2083 14.6 17.0333 14.6 18C14.6 18.9667 14.9375 19.7917 15.6125 20.475C16.2875 21.1583 17.1167 21.5 18.1 21.5V21.5M18.05 18V18V18V18V18V18V18V18V18V18V18V18V18V18V18V18V18V18V18V18V18V18V18V18V18V18V18V18V18V18V18V18V18V18V18V18" fill="#404752"/>
</svg>
