<svg width="56" height="56" viewBox="0 0 56 56" fill="none" xmlns="http://www.w3.org/2000/svg">
<rect width="56" height="56" rx="12" fill="#409EFF" fill-opacity="0.1"/>
<path d="M22.6667 34.6667C23.0444 34.6667 23.3611 34.5389 23.6167 34.2833C23.8722 34.0278 24 33.7111 24 33.3333C24 32.9556 23.8722 32.6389 23.6167 32.3833C23.3611 32.1278 23.0444 32 22.6667 32C22.2889 32 21.9722 32.1278 21.7167 32.3833C21.4611 32.6389 21.3333 32.9556 21.3333 33.3333C21.3333 33.7111 21.4611 34.0278 21.7167 34.2833C21.9722 34.5389 22.2889 34.6667 22.6667 34.6667V34.6667M22.6667 29.3333C23.0444 29.3333 23.3611 29.2056 23.6167 28.95C23.8722 28.6944 24 28.3778 24 28C24 27.6222 23.8722 27.3056 23.6167 27.05C23.3611 26.7944 23.0444 26.6667 22.6667 26.6667C22.2889 26.6667 21.9722 26.7944 21.7167 27.05C21.4611 27.3056 21.3333 27.6222 21.3333 28C21.3333 28.3778 21.4611 28.6944 21.7167 28.95C21.9722 29.2056 22.2889 29.3333 22.6667 29.3333V29.3333M22.6667 24C23.0444 24 23.3611 23.8722 23.6167 23.6167C23.8722 23.3611 24 23.0444 24 22.6667C24 22.2889 23.8722 21.9722 23.6167 21.7167C23.3611 21.4611 23.0444 21.3333 22.6667 21.3333C22.2889 21.3333 21.9722 21.4611 21.7167 21.7167C21.4611 21.9722 21.3333 22.2889 21.3333 22.6667C21.3333 23.0444 21.4611 23.3611 21.7167 23.6167C21.9722 23.8722 22.2889 24 22.6667 24V24M26.6667 34.6667H34.6667V32H26.6667V34.6667V34.6667M26.6667 29.3333H34.6667V26.6667H26.6667V29.3333V29.3333M26.6667 24H34.6667V21.3333H26.6667V24V24M18.6667 40C17.9333 40 17.3056 39.7389 16.7833 39.2167C16.2611 38.6944 16 38.0667 16 37.3333V18.6667C16 17.9333 16.2611 17.3056 16.7833 16.7833C17.3056 16.2611 17.9333 16 18.6667 16H37.3333C38.0667 16 38.6944 16.2611 39.2167 16.7833C39.7389 17.3056 40 17.9333 40 18.6667V37.3333C40 38.0667 39.7389 38.6944 39.2167 39.2167C38.6944 39.7389 38.0667 40 37.3333 40H18.6667V40M18.6667 37.3333H37.3333V37.3333V37.3333V18.6667V18.6667V18.6667H18.6667V18.6667V18.6667V37.3333V37.3333V37.3333V37.3333M18.6667 18.6667V18.6667V18.6667V18.6667V37.3333V37.3333V37.3333V37.3333V37.3333V37.3333V18.6667V18.6667V18.6667V18.6667" fill="#0060A9"/>
</svg>
