<svg width="37" height="23" viewBox="0 0 37 23" fill="none" xmlns="http://www.w3.org/2000/svg">
<path d="M0 18.2423V14.714L9.13942 0.292969H12.1609V5.21905H10.3606L4.51622 14.4574V14.6332H17.4678V18.2423H0V18.2423M10.4505 22.1191V17.173L10.5363 15.5894V0.292969H14.7461V22.1191H10.4505V22.1191M20.6279 22.1191V18.902L28.3615 11.6449C29.0243 10.998 29.5848 10.4151 30.0428 9.89604C30.5008 9.37701 30.8494 8.86598 31.0885 8.36296C31.3277 7.85994 31.4472 7.31371 31.4472 6.72426C31.4472 6.07329 31.2995 5.513 31.0041 5.04338C30.7087 4.57375 30.3075 4.21243 29.8004 3.95941C29.2932 3.70638 28.7123 3.57987 28.0577 3.57987C27.3805 3.57987 26.7895 3.71668 26.2846 3.99031C25.7798 4.26394 25.389 4.65451 25.1123 5.16202C24.8357 5.66953 24.6974 6.27807 24.6974 6.98763H20.4334C20.4334 5.56673 20.7563 4.33371 21.4021 3.28859C22.0479 2.24347 22.9468 1.43409 24.0987 0.860453C25.2507 0.286818 26.5816 0 28.0913 0C29.6328 0 30.9791 0.274951 32.1304 0.824854C33.2817 1.37476 34.1772 2.13374 34.8171 3.10181C35.4569 4.06988 35.7769 5.18322 35.7769 6.44182C35.7769 7.25921 35.6181 8.06253 35.3006 8.85179C34.9832 9.64105 34.4179 10.5251 33.6048 11.504C32.7917 12.483 31.6378 13.6586 30.143 15.0311L26.839 18.2867V18.4467H36.0719V22.1191H20.6279V22.1191" fill="#191C1E"/>
</svg>
