<svg width="22" height="22" viewBox="0 0 22 22" fill="none" xmlns="http://www.w3.org/2000/svg">
<path d="M19.775 21.2L17.475 18.9V18.9V18.9H4.3C3.75 18.9 3.27917 18.7042 2.8875 18.3125C2.49583 17.9208 2.3 17.45 2.3 16.9V3.725V3.725V3.725L0 1.4L1.4 0L21.2 19.8L19.775 21.2V21.2M4.3 16.9H15.475L13.475 14.9H5.3L8.3 10.9L10.3 13.625L11.15 12.575L4.3 5.725V16.9V16.9V16.9V16.9M20.3 16.075L18.3 14.075V2.9V2.9V2.9H7.125L5.125 0.9H18.3C18.85 0.9 19.3208 1.09583 19.7125 1.4875C20.1042 1.87917 20.3 2.35 20.3 2.9V16.075V16.075M12.775 8.55V8.55V8.55V8.55V8.55V8.55V8.55M9.9 11.325V11.325V11.325V11.325V11.325V11.325V11.325" fill="#C0C7D4"/>
</svg>
