<svg width="30" height="30" viewBox="0 0 30 30" fill="none" xmlns="http://www.w3.org/2000/svg">
<path d="M15 18C15.8333 18 16.5417 17.7083 17.125 17.125C17.7083 16.5417 18 15.8333 18 15C18 14.1667 17.7083 13.4583 17.125 12.875C16.5417 12.2917 15.8333 12 15 12C14.1667 12 13.4583 12.2917 12.875 12.875C12.2917 13.4583 12 14.1667 12 15C12 15.8333 12.2917 16.5417 12.875 17.125C13.4583 17.7083 14.1667 18 15 18V18M15 20C13.6167 20 12.4375 19.5125 11.4625 18.5375C10.4875 17.5625 10 16.3833 10 15C10 13.6167 10.4875 12.4375 11.4625 11.4625C12.4375 10.4875 13.6167 10 15 10C16.3833 10 17.5625 10.4875 18.5375 11.4625C19.5125 12.4375 20 13.6167 20 15C20 16.3833 19.5125 17.5625 18.5375 18.5375C17.5625 19.5125 16.3833 20 15 20V20M8 16H4V14H8V16V16M26 16H22V14H26V16V16M14 8V4H16V8H14V8M14 26V22H16V26H14V26M9.4 10.75L6.875 8.325L8.3 6.85L10.7 9.35L9.4 10.75V10.75M21.7 23.15L19.275 20.625L20.6 19.25L23.125 21.675L21.7 23.15V23.15M19.25 9.4L21.675 6.875L23.15 8.3L20.65 10.7L19.25 9.4V9.4M6.85 21.7L9.375 19.275L10.75 20.6L8.325 23.125L6.85 21.7V21.7M15 15V15V15V15V15V15V15V15V15V15" fill="#404752"/>
</svg>
