<svg width="13" height="4" viewBox="0 0 13 4" fill="none" xmlns="http://www.w3.org/2000/svg">
<path d="M1.51172 0C0.703125 0 0 0.703125 0 1.51172C0 2.32031 0.703125 3.02344 1.51172 3.02344C2.32031 3.02344 3.02344 2.32031 3.02344 1.51172C3.02344 0.703125 2.32031 0 1.51172 0V0M10.5117 0C9.70312 0 9 0.703125 9 1.51172C9 2.32031 9.70312 3.02344 10.5117 3.02344C11.3203 3.02344 12.0234 2.32031 12.0234 1.51172C12.0234 0.703125 11.3203 0 10.5117 0V0M6.01172 0C5.20312 0 4.5 0.703125 4.5 1.51172C4.5 2.32031 5.20312 3.02344 6.01172 3.02344C6.82031 3.02344 7.52344 2.32031 7.52344 1.51172C7.52344 0.703125 6.82031 0 6.01172 0V0" fill="#0F172A"/>
</svg>
