<svg width="23" height="15" viewBox="0 0 23 15" fill="none" xmlns="http://www.w3.org/2000/svg">
<path d="M15.4883 0C11.3398 0 8 3.33984 8 7.48828C8 11.6367 11.3398 14.9766 15.4883 14.9766C19.6367 14.9766 22.9766 11.6367 22.9766 7.48828C22.9766 3.33984 19.6367 0 15.4883 0V0M15.4883 13.5C12.1836 13.5 9.47656 10.793 9.47656 7.48828C9.47656 4.18359 12.1836 1.47656 15.4883 1.47656C18.793 1.47656 21.5 4.18359 21.5 7.48828C21.5 10.793 18.793 13.5 15.4883 13.5V13.5M11.7266 7.48828C11.7266 5.41406 13.4141 3.72656 15.4883 3.72656C17.5625 3.72656 19.25 5.41406 19.25 7.48828C19.25 9.5625 17.5625 11.25 15.4883 11.25C13.4141 11.25 11.7266 9.5625 11.7266 7.48828V7.48828" fill="#3B82F6"/>
</svg>
