<svg width="14" height="14" viewBox="0 0 14 14" fill="none" xmlns="http://www.w3.org/2000/svg">
<path d="M5.85049 13.3333C5.61438 13.3333 5.41646 13.2535 5.25674 13.0938C5.09702 12.934 5.01716 12.7361 5.01716 12.5V7.5L0.183824 1.33333C-0.0245098 1.05556 -0.0557598 0.763889 0.0900735 0.458333C0.235907 0.152778 0.489379 0 0.85049 0H12.5172C12.8783 0 13.1317 0.152778 13.2776 0.458333C13.4234 0.763889 13.3922 1.05556 13.1838 1.33333L8.35049 7.5V12.5C8.35049 12.7361 8.27063 12.934 8.11091 13.0938C7.95118 13.2535 7.75327 13.3333 7.51716 13.3333H5.85049V13.3333M6.68382 6.91667L10.8088 1.66667H2.55882L6.68382 6.91667V6.91667M6.68382 6.91667V6.91667V6.91667V6.91667V6.91667" fill="#404752"/>
</svg>
