<svg width="38" height="38" viewBox="0 0 38 38" fill="none" xmlns="http://www.w3.org/2000/svg">
<path d="M19 22C19.8333 22 20.5417 21.7083 21.125 21.125C21.7083 20.5417 22 19.8333 22 19C22 18.1667 21.7083 17.4583 21.125 16.875C20.5417 16.2917 19.8333 16 19 16C18.1667 16 17.4583 16.2917 16.875 16.875C16.2917 17.4583 16 18.1667 16 19C16 19.8333 16.2917 20.5417 16.875 21.125C17.4583 21.7083 18.1667 22 19 22V22M19 24C17.6167 24 16.4375 23.5125 15.4625 22.5375C14.4875 21.5625 14 20.3833 14 19C14 17.6167 14.4875 16.4375 15.4625 15.4625C16.4375 14.4875 17.6167 14 19 14C20.3833 14 21.5625 14.4875 22.5375 15.4625C23.5125 16.4375 24 17.6167 24 19C24 20.3833 23.5125 21.5625 22.5375 22.5375C21.5625 23.5125 20.3833 24 19 24V24M12 20H8V18H12V20V20M30 20H26V18H30V20V20M18 12V8H20V12H18V12M18 30V26H20V30H18V30M13.4 14.75L10.875 12.325L12.3 10.85L14.7 13.35L13.4 14.75V14.75M25.7 27.15L23.275 24.625L24.6 23.25L27.125 25.675L25.7 27.15V27.15M23.25 13.4L25.675 10.875L27.15 12.3L24.65 14.7L23.25 13.4V13.4M10.85 25.7L13.375 23.275L14.75 24.6L12.325 27.125L10.85 25.7V25.7M19 19V19V19V19V19V19V19V19V19V19" fill="#404752"/>
</svg>
