<svg width="34" height="34" viewBox="0 0 34 34" fill="none" xmlns="http://www.w3.org/2000/svg">
<rect width="34" height="34" rx="8" fill="#D8E2FF"/>
<path d="M12 22H14V17H12V22V22M20 22H22V12H20V22V22M16 22H18V19H16V22V22M16 17H18V15H16V17V17M10 26C9.45 26 8.97917 25.8042 8.5875 25.4125C8.19583 25.0208 8 24.55 8 24V10C8 9.45 8.19583 8.97917 8.5875 8.5875C8.97917 8.19583 9.45 8 10 8H24C24.55 8 25.0208 8.19583 25.4125 8.5875C25.8042 8.97917 26 9.45 26 10V24C26 24.55 25.8042 25.0208 25.4125 25.4125C25.0208 25.8042 24.55 26 24 26H10V26M10 24H24V24V24V10V10V10H10V10V10V24V24V24V24M10 10V10V10V10V24V24V24V24V24V24V10V10V10V10" fill="#001A41"/>
</svg>
