<svg width="34" height="34" viewBox="0 0 34 34" fill="none" xmlns="http://www.w3.org/2000/svg">
<path d="M17 26C14.7 26 12.6958 25.2375 10.9875 23.7125C9.27917 22.1875 8.3 20.2833 8.05 18H10.1C10.3333 19.7333 11.1042 21.1667 12.4125 22.3C13.7208 23.4333 15.25 24 17 24C18.95 24 20.6042 23.3208 21.9625 21.9625C23.3208 20.6042 24 18.95 24 17C24 15.05 23.3208 13.3958 21.9625 12.0375C20.6042 10.6792 18.95 10 17 10C15.85 10 14.775 10.2667 13.775 10.8C12.775 11.3333 11.9333 12.0667 11.25 13H14V15H8V9H10V11.35C10.85 10.2833 11.8875 9.45833 13.1125 8.875C14.3375 8.29167 15.6333 8 17 8C18.25 8 19.4208 8.2375 20.5125 8.7125C21.6042 9.1875 22.5542 9.82917 23.3625 10.6375C24.1708 11.4458 24.8125 12.3958 25.2875 13.4875C25.7625 14.5792 26 15.75 26 17C26 18.25 25.7625 19.4208 25.2875 20.5125C24.8125 21.6042 24.1708 22.5542 23.3625 23.3625C22.5542 24.1708 21.6042 24.8125 20.5125 25.2875C19.4208 25.7625 18.25 26 17 26V26M19.8 21.2L16 17.4V12H18V16.6L21.2 19.8L19.8 21.2V21.2" fill="#404752"/>
</svg>
