<svg width="14" height="7" viewBox="0 0 14 7" fill="none" xmlns="http://www.w3.org/2000/svg">
<path d="M0 7V6.08125C0 5.66319 0.213889 5.32292 0.641667 5.06042C1.06944 4.79792 1.63333 4.66667 2.33333 4.66667C2.45972 4.66667 2.58125 4.6691 2.69792 4.67396C2.81458 4.67882 2.92639 4.69097 3.03333 4.71042C2.89722 4.91458 2.79514 5.12847 2.72708 5.35208C2.65903 5.57569 2.625 5.80903 2.625 6.05208V7H0V7M3.5 7V6.05208C3.5 5.74097 3.58507 5.4566 3.75521 5.19896C3.92535 4.94132 4.16597 4.71528 4.47708 4.52083C4.78819 4.32639 5.16007 4.18056 5.59271 4.08333C6.02535 3.98611 6.49444 3.9375 7 3.9375C7.51528 3.9375 7.98924 3.98611 8.42188 4.08333C8.85451 4.18056 9.22639 4.32639 9.5375 4.52083C9.84861 4.71528 10.0868 4.94132 10.2521 5.19896C10.4174 5.4566 10.5 5.74097 10.5 6.05208V7H3.5V7M11.375 7V6.05208C11.375 5.79931 11.3434 5.56111 11.2802 5.3375C11.217 5.11389 11.1222 4.90486 10.9958 4.71042C11.1028 4.69097 11.2122 4.67882 11.324 4.67396C11.4358 4.6691 11.55 4.66667 11.6667 4.66667C12.3667 4.66667 12.9306 4.79549 13.3583 5.05312C13.7861 5.31076 14 5.65347 14 6.08125V7H11.375V7M4.73958 5.83333H9.275V5.83333C9.17778 5.63889 8.90799 5.46875 8.46562 5.32292C8.02326 5.17708 7.53472 5.10417 7 5.10417C6.46528 5.10417 5.97674 5.17708 5.53438 5.32292C5.09201 5.46875 4.82708 5.63889 4.73958 5.83333V5.83333V5.83333M2.33333 4.08333C2.0125 4.08333 1.73785 3.9691 1.50937 3.74062C1.2809 3.51215 1.16667 3.2375 1.16667 2.91667C1.16667 2.58611 1.2809 2.30903 1.50937 2.08542C1.73785 1.86181 2.0125 1.75 2.33333 1.75C2.66389 1.75 2.94097 1.86181 3.16458 2.08542C3.38819 2.30903 3.5 2.58611 3.5 2.91667C3.5 3.2375 3.38819 3.51215 3.16458 3.74062C2.94097 3.9691 2.66389 4.08333 2.33333 4.08333V4.08333M11.6667 4.08333C11.3458 4.08333 11.0712 3.9691 10.8427 3.74062C10.6142 3.51215 10.5 3.2375 10.5 2.91667C10.5 2.58611 10.6142 2.30903 10.8427 2.08542C11.0712 1.86181 11.3458 1.75 11.6667 1.75C11.9972 1.75 12.2743 1.86181 12.4979 2.08542C12.7215 2.30903 12.8333 2.58611 12.8333 2.91667C12.8333 3.2375 12.7215 3.51215 12.4979 3.74062C12.2743 3.9691 11.9972 4.08333 11.6667 4.08333V4.08333M7 3.5C6.51389 3.5 6.10069 3.32986 5.76042 2.98958C5.42014 2.64931 5.25 2.23611 5.25 1.75C5.25 1.25417 5.42014 0.838542 5.76042 0.503125C6.10069 0.167708 6.51389 0 7 0C7.49583 0 7.91146 0.167708 8.24687 0.503125C8.58229 0.838542 8.75 1.25417 8.75 1.75C8.75 2.23611 8.58229 2.64931 8.24687 2.98958C7.91146 3.32986 7.49583 3.5 7 3.5V3.5M7 2.33333C7.16528 2.33333 7.30382 2.27743 7.41563 2.16563C7.52743 2.05382 7.58333 1.91528 7.58333 1.75C7.58333 1.58472 7.52743 1.44618 7.41563 1.33438C7.30382 1.22257 7.16528 1.16667 7 1.16667C6.83472 1.16667 6.69618 1.22257 6.58437 1.33438C6.47257 1.44618 6.41667 1.58472 6.41667 1.75C6.41667 1.91528 6.47257 2.05382 6.58437 2.16563C6.69618 2.27743 6.83472 2.33333 7 2.33333V2.33333M7.01458 5.83333V5.83333V5.83333V5.83333V5.83333V5.83333V5.83333V5.83333V5.83333M7 1.75V1.75V1.75V1.75V1.75V1.75V1.75V1.75V1.75V1.75" fill="#0058BB"/>
</svg>
