<svg width="16" height="16" viewBox="0 0 16 16" fill="none" xmlns="http://www.w3.org/2000/svg">
<path d="M1.9 15.2C1.3775 15.2 0.930208 15.014 0.558125 14.6419C0.186042 14.2698 0 13.8225 0 13.3C0 12.7775 0.186042 12.3302 0.558125 11.9581C0.930208 11.586 1.3775 11.4 1.9 11.4C2.4225 11.4 2.86979 11.586 3.24187 11.9581C3.61396 12.3302 3.8 12.7775 3.8 13.3C3.8 13.8225 3.61396 14.2698 3.24187 14.6419C2.86979 15.014 2.4225 15.2 1.9 15.2V15.2M7.6 15.2C7.0775 15.2 6.63021 15.014 6.25813 14.6419C5.88604 14.2698 5.7 13.8225 5.7 13.3C5.7 12.7775 5.88604 12.3302 6.25813 11.9581C6.63021 11.586 7.0775 11.4 7.6 11.4C8.1225 11.4 8.56979 11.586 8.94188 11.9581C9.31396 12.3302 9.5 12.7775 9.5 13.3C9.5 13.8225 9.31396 14.2698 8.94188 14.6419C8.56979 15.014 8.1225 15.2 7.6 15.2V15.2M13.3 15.2C12.7775 15.2 12.3302 15.014 11.9581 14.6419C11.586 14.2698 11.4 13.8225 11.4 13.3C11.4 12.7775 11.586 12.3302 11.9581 11.9581C12.3302 11.586 12.7775 11.4 13.3 11.4C13.8225 11.4 14.2698 11.586 14.6419 11.9581C15.014 12.3302 15.2 12.7775 15.2 13.3C15.2 13.8225 15.014 14.2698 14.6419 14.6419C14.2698 15.014 13.8225 15.2 13.3 15.2V15.2M1.9 9.5C1.3775 9.5 0.930208 9.31396 0.558125 8.94188C0.186042 8.56979 0 8.1225 0 7.6C0 7.0775 0.186042 6.63021 0.558125 6.25813C0.930208 5.88604 1.3775 5.7 1.9 5.7C2.4225 5.7 2.86979 5.88604 3.24187 6.25813C3.61396 6.63021 3.8 7.0775 3.8 7.6C3.8 8.1225 3.61396 8.56979 3.24187 8.94188C2.86979 9.31396 2.4225 9.5 1.9 9.5V9.5M7.6 9.5C7.0775 9.5 6.63021 9.31396 6.25813 8.94188C5.88604 8.56979 5.7 8.1225 5.7 7.6C5.7 7.0775 5.88604 6.63021 6.25813 6.25813C6.63021 5.88604 7.0775 5.7 7.6 5.7C8.1225 5.7 8.56979 5.88604 8.94188 6.25813C9.31396 6.63021 9.5 7.0775 9.5 7.6C9.5 8.1225 9.31396 8.56979 8.94188 8.94188C8.56979 9.31396 8.1225 9.5 7.6 9.5V9.5M13.3 9.5C12.7775 9.5 12.3302 9.31396 11.9581 8.94188C11.586 8.56979 11.4 8.1225 11.4 7.6C11.4 7.0775 11.586 6.63021 11.9581 6.25813C12.3302 5.88604 12.7775 5.7 13.3 5.7C13.8225 5.7 14.2698 5.88604 14.6419 6.25813C15.014 6.63021 15.2 7.0775 15.2 7.6C15.2 8.1225 15.014 8.56979 14.6419 8.94188C14.2698 9.31396 13.8225 9.5 13.3 9.5V9.5M1.9 3.8C1.3775 3.8 0.930208 3.61396 0.558125 3.24187C0.186042 2.86979 0 2.4225 0 1.9C0 1.3775 0.186042 0.930208 0.558125 0.558125C0.930208 0.186042 1.3775 0 1.9 0C2.4225 0 2.86979 0.186042 3.24187 0.558125C3.61396 0.930208 3.8 1.3775 3.8 1.9C3.8 2.4225 3.61396 2.86979 3.24187 3.24187C2.86979 3.61396 2.4225 3.8 1.9 3.8V3.8M7.6 3.8C7.0775 3.8 6.63021 3.61396 6.25813 3.24187C5.88604 2.86979 5.7 2.4225 5.7 1.9C5.7 1.3775 5.88604 0.930208 6.25813 0.558125C6.63021 0.186042 7.0775 0 7.6 0C8.1225 0 8.56979 0.186042 8.94188 0.558125C9.31396 0.930208 9.5 1.3775 9.5 1.9C9.5 2.4225 9.31396 2.86979 8.94188 3.24187C8.56979 3.61396 8.1225 3.8 7.6 3.8V3.8M13.3 3.8C12.7775 3.8 12.3302 3.61396 11.9581 3.24187C11.586 2.86979 11.4 2.4225 11.4 1.9C11.4 1.3775 11.586 0.930208 11.9581 0.558125C12.3302 0.186042 12.7775 0 13.3 0C13.8225 0 14.2698 0.186042 14.6419 0.558125C15.014 0.930208 15.2 1.3775 15.2 1.9C15.2 2.4225 15.014 2.86979 14.6419 3.24187C14.2698 3.61396 13.8225 3.8 13.3 3.8V3.8" fill="#0058BB"/>
</svg>
