<svg width="15" height="15" viewBox="0 0 15 15" fill="none" xmlns="http://www.w3.org/2000/svg">
<path d="M9.9 13.125L12 11.025V12.75H12.75V9.75H9.75V10.5H11.475L9.375 12.6L9.9 13.125V13.125M1.5 13.5C1.0875 13.5 0.734375 13.3531 0.440625 13.0594C0.146875 12.7656 0 12.4125 0 12V1.5C0 1.0875 0.146875 0.734375 0.440625 0.440625C0.734375 0.146875 1.0875 0 1.5 0H12C12.4125 0 12.7656 0.146875 13.0594 0.440625C13.3531 0.734375 13.5 1.0875 13.5 1.5V6.525C13.2625 6.4125 13.0188 6.31562 12.7688 6.23438C12.5188 6.15313 12.2625 6.09375 12 6.05625V1.5V1.5V1.5H1.5V1.5V1.5V12V12V12H6.0375C6.075 12.275 6.13437 12.5375 6.21562 12.7875C6.29687 13.0375 6.39375 13.275 6.50625 13.5H1.5V13.5M1.5 11.25C1.5 11.3875 1.5 11.5156 1.5 11.6344C1.5 11.7531 1.5 11.875 1.5 12V12V12V12V1.5V1.5V1.5V1.5V1.5V1.5V6.05625C1.5 6.03125 1.5 6.01563 1.5 6.00938C1.5 6.00313 1.5 6 1.5 6C1.5 6 1.5 6.5125 1.5 7.5375C1.5 8.5625 1.5 9.8 1.5 11.25V11.25M3 10.5H6.05625C6.09375 10.2375 6.15313 9.98125 6.23438 9.73125C6.31562 9.48125 6.40625 9.2375 6.50625 9H3V10.5V10.5M3 7.5H7.575C7.975 7.125 8.42187 6.8125 8.91562 6.5625C9.40937 6.3125 9.9375 6.14375 10.5 6.05625V6H3V7.5V7.5M3 4.5H10.5V3H3V4.5V4.5M11.25 15C10.2125 15 9.32813 14.6344 8.59688 13.9031C7.86563 13.1719 7.5 12.2875 7.5 11.25C7.5 10.2125 7.86563 9.32813 8.59688 8.59688C9.32813 7.86563 10.2125 7.5 11.25 7.5C12.2875 7.5 13.1719 7.86563 13.9031 8.59688C14.6344 9.32813 15 10.2125 15 11.25C15 12.2875 14.6344 13.1719 13.9031 13.9031C13.1719 14.6344 12.2875 15 11.25 15V15" fill="white"/>
</svg>
