<svg width="16" height="15" viewBox="0 0 16 15" fill="none" xmlns="http://www.w3.org/2000/svg">
<path d="M5.03125 7.48438C4.36458 7.48438 3.69792 7.5 3.03125 7.53125C3.0625 7.17708 3.0625 6.81771 3.03125 6.45312C3.69792 6.48438 4.36458 6.5 5.03125 6.5H11.8594V13.3281C11.8594 13.7552 11.6927 14.1146 11.3594 14.4062C10.9115 14.8125 10.0729 15.0104 8.84375 15C8.96875 14.4583 8.83854 13.9844 8.45312 13.5781C8.80729 13.6198 9.22396 13.6432 9.70312 13.6484C10.1823 13.6536 10.4661 13.6224 10.5547 13.5547C10.6432 13.487 10.6875 13.2969 10.6875 12.9844V7.48438H7.14062C7.04688 9.21354 6.53385 10.763 5.60156 12.1328C4.66927 13.5026 3.47396 14.4375 2.01562 14.9375C1.68229 14.4479 1.22917 14.1094 0.65625 13.9219C1.27083 13.8698 1.88802 13.6693 2.50781 13.3203C3.1276 12.9714 3.6901 12.5208 4.19531 11.9688C4.70052 11.4167 5.11198 10.7448 5.42969 9.95312C5.7474 9.16146 5.90104 8.33854 5.89062 7.48438H5.03125V7.48438M15.1875 6.65625C14.7708 6.85417 14.4688 7.16146 14.2812 7.57812C12.7396 6.78646 11.5052 5.6875 10.5781 4.28125C9.76562 3.07292 9.13542 1.73958 8.6875 0.28125L9.70312 0C10.3698 2.30208 11.4844 4.07812 13.0469 5.32812C13.7135 5.84896 14.4271 6.29167 15.1875 6.65625V6.65625M5.07812 0.28125C5.51562 0.458333 5.96875 0.583333 6.4375 0.65625C5.9375 2.08333 5.28125 3.40625 4.46875 4.625C3.54167 6.03125 2.36979 7.19792 0.953125 8.125C0.744792 7.6875 0.427083 7.35417 0 7.125C1.26042 6.36458 2.3125 5.47396 3.15625 4.45312C3.51042 4.02604 3.78646 3.60938 3.98438 3.20312C4.42188 2.27604 4.78646 1.30208 5.07812 0.28125V0.28125" fill="#707784"/>
</svg>
