<svg width="61" height="36" viewBox="0 0 61 36" fill="none" xmlns="http://www.w3.org/2000/svg">
<path d="M39.3 28L38.9 24.8C38.6833 24.7167 38.4792 24.6167 38.2875 24.5C38.0958 24.3833 37.9083 24.2583 37.725 24.125L34.75 25.375L32 20.625L34.575 18.675C34.5583 18.5583 34.55 18.4458 34.55 18.3375C34.55 18.2292 34.55 18.1167 34.55 18C34.55 17.8833 34.55 17.7708 34.55 17.6625C34.55 17.5542 34.5583 17.4417 34.575 17.325L32 15.375L34.75 10.625L37.725 11.875C37.9083 11.7417 38.1 11.6167 38.3 11.5C38.5 11.3833 38.7 11.2833 38.9 11.2L39.3 8H44.8L45.2 11.2C45.4167 11.2833 45.6208 11.3833 45.8125 11.5C46.0042 11.6167 46.1917 11.7417 46.375 11.875L49.35 10.625L52.1 15.375L49.525 17.325C49.5417 17.4417 49.55 17.5542 49.55 17.6625C49.55 17.7708 49.55 17.8833 49.55 18C49.55 18.1167 49.55 18.2292 49.55 18.3375C49.55 18.4458 49.5333 18.5583 49.5 18.675L52.075 20.625L49.325 25.375L46.375 24.125C46.1917 24.2583 46 24.3833 45.8 24.5C45.6 24.6167 45.4 24.7167 45.2 24.8L44.8 28H39.3V28M41.05 26H43.025L43.375 23.35C43.8917 23.2167 44.3708 23.0208 44.8125 22.7625C45.2542 22.5042 45.6583 22.1917 46.025 21.825L48.5 22.85L49.475 21.15L47.325 19.525C47.4083 19.2917 47.4667 19.0458 47.5 18.7875C47.5333 18.5292 47.55 18.2667 47.55 18C47.55 17.7333 47.5333 17.4708 47.5 17.2125C47.4667 16.9542 47.4083 16.7083 47.325 16.475L49.475 14.85L48.5 13.15L46.025 14.2C45.6583 13.8167 45.2542 13.4958 44.8125 13.2375C44.3708 12.9792 43.8917 12.7833 43.375 12.65L43.05 10H41.075L40.725 12.65C40.2083 12.7833 39.7292 12.9792 39.2875 13.2375C38.8458 13.4958 38.4417 13.8083 38.075 14.175L35.6 13.15L34.625 14.85L36.775 16.45C36.6917 16.7 36.6333 16.95 36.6 17.2C36.5667 17.45 36.55 17.7167 36.55 18C36.55 18.2667 36.5667 18.525 36.6 18.775C36.6333 19.025 36.6917 19.275 36.775 19.525L34.625 21.15L35.6 22.85L38.075 21.8C38.4417 22.1833 38.8458 22.5042 39.2875 22.7625C39.7292 23.0208 40.2083 23.2167 40.725 23.35L41.05 26V26M42.1 21.5C43.0667 21.5 43.8917 21.1583 44.575 20.475C45.2583 19.7917 45.6 18.9667 45.6 18C45.6 17.0333 45.2583 16.2083 44.575 15.525C43.8917 14.8417 43.0667 14.5 42.1 14.5C41.1167 14.5 40.2875 14.8417 39.6125 15.525C38.9375 16.2083 38.6 17.0333 38.6 18C38.6 18.9667 38.9375 19.7917 39.6125 20.475C40.2875 21.1583 41.1167 21.5 42.1 21.5V21.5M42.05 18V18V18V18V18V18V18V18V18V18V18V18V18V18V18V18V18V18V18V18V18V18V18V18V18V18V18V18V18V18V18V18V18V18V18V18" fill="#404752"/>
</svg>
