<svg width="116" height="90" viewBox="0 0 116 90" fill="none" xmlns="http://www.w3.org/2000/svg">
<path d="M45.239 37.9476L58.258 47.0406C60.6974 43.9809 63.172 41.0565 65.6818 38.2674C68.1915 35.4783 70.8846 32.7281 73.7612 30.0169L63.9195 25.8164V25.8164V25.8164L45.239 37.9476V37.9476M68.0466 58.7057L84.5493 83.8743C90.1004 83.0095 96.2392 81.1835 102.966 78.3961C109.692 75.6087 116.169 72.1931 122.396 68.1494C132.774 61.4098 141.489 53.3264 148.54 43.899C155.592 34.4716 159.748 25.2913 161.008 16.358C152.334 13.8755 142.227 13.9315 130.685 16.526C119.143 19.1206 108.184 23.7876 97.8055 30.5272C91.5787 34.5709 85.8241 39.0984 80.5418 44.1096C75.2595 49.1209 71.0944 53.9862 68.0466 58.7057V58.7057M103.226 53.7236C101.012 50.3137 100.34 46.5607 101.21 42.4647C102.081 38.3687 104.221 35.2135 107.631 32.9991C111.041 30.7847 114.825 30.1193 118.982 31.0029C123.139 31.8865 126.325 34.0333 128.539 37.4432C130.754 40.8531 131.425 44.6061 130.555 48.7021C129.684 52.7981 127.544 55.9533 124.134 58.1677C120.724 60.3821 116.941 61.0475 112.783 60.1639C108.626 59.2803 105.441 57.1335 103.226 53.7236V53.7236M94.1971 113.336L112.877 101.205V101.205V101.205L113.043 90.5059C109.396 92.031 105.795 93.3422 102.239 94.4394C98.6834 95.5365 95.0118 96.5772 91.2245 97.5612L94.1971 113.336V113.336M177.058 5.77648C176.237 21.0647 171.74 35.1565 163.568 48.0517C155.396 60.9468 143.6 72.401 128.181 82.414V82.414V82.414L127.99 101.351C127.959 103.9 127.33 106.258 126.103 108.425C124.875 110.592 123.224 112.35 121.148 113.698L83.7875 137.96L76.0615 98.5554L51.3658 60.5274L18.5101 37.4418L55.6876 13.1404C57.7632 11.7925 60.0711 11.0051 62.6112 10.7783C65.1514 10.5515 67.5922 10.9425 69.9336 11.9514L87.3108 19.4788V19.4788V19.4788C102.73 9.46573 117.967 3.31181 133.023 1.01701C148.079 -1.27778 162.758 0.30871 177.058 5.77648V5.77648M23.3062 78.9075C28.4952 75.5378 34.1835 74.4785 40.371 75.7298C46.5586 76.9812 51.3372 80.2013 54.707 85.3903C58.0768 90.5793 59.0749 96.2546 57.7013 102.416C56.3277 108.578 53.0464 113.343 47.8574 116.713C44.151 119.12 38.4875 120.664 30.867 121.344C23.2465 122.025 12.9575 121.883 4.01118e-05 120.917C4.38866 108.688 8.44357 99.2303 12.1648 92.5454C15.8859 85.8605 19.5998 81.3145 23.3062 78.9075V78.9075M31.5771 91.4001C30.0945 92.3629 28.3975 94.3344 26.4861 97.3147C24.5747 100.295 23.0236 103.384 21.8329 106.581C25.2381 106.794 28.6842 106.663 32.1712 106.191C35.6582 105.718 38.143 105 39.6255 104.037C41.4046 102.882 42.5762 101.278 43.1403 99.2253C43.7044 97.1727 43.4087 95.2569 42.2534 93.4778C41.098 91.6987 39.4746 90.6188 37.383 90.2381C35.2915 89.8575 33.3561 90.2448 31.5771 91.4001V91.4001" fill="#191C22"/>
</svg>
