<svg width="18" height="18" viewBox="0 0 18 18" fill="none" xmlns="http://www.w3.org/2000/svg">
<path d="M12.8496 14.4316C12.8496 15.2637 12.8672 16.1016 12.9023 16.9453C12.457 16.8984 12.0059 16.8984 11.5488 16.9453C11.584 16.1016 11.6016 15.2637 11.6016 14.4316V8.38477C10.582 10.7051 9.33398 12.6621 7.85742 14.2559C7.54102 13.8574 7.13086 13.5996 6.62695 13.4824C8.32617 11.748 9.5332 10.0488 10.248 8.38477C10.7402 7.18945 11.168 5.94727 11.5312 4.6582L11.6016 4.67578V4.62305H10.8809C10.248 4.62305 9.62109 4.64062 9 4.67578C9.03516 4.33594 9.03516 3.99609 9 3.65625C9.62109 3.67969 10.248 3.69141 10.8809 3.69141H11.6016V2.49609C11.6016 1.66406 11.584 0.832031 11.5488 0C12.0059 0.046875 12.457 0.046875 12.9023 0C12.8672 0.832031 12.8496 1.66406 12.8496 2.49609V3.69141H15.0293C15.6621 3.69141 16.2891 3.67969 16.9102 3.65625C16.875 3.99609 16.875 4.33594 16.9102 4.67578C16.2891 4.64062 15.6621 4.62305 15.0293 4.62305H13.1836C13.5703 6.52148 14.0977 8.08301 14.7656 9.30762C15.4336 10.5322 16.377 11.748 17.5957 12.9551C17.1152 13.0137 16.7051 13.2246 16.3652 13.5879C14.877 12.1113 13.7051 10.1191 12.8496 7.61133V14.4316V14.4316M1.35352 14.0449C1.01367 13.7285 0.5625 13.5352 0 13.4648C0.457031 12.7969 0.969727 11.9824 1.53809 11.0215C2.10645 10.0605 2.58398 9.05859 2.9707 8.01562C3.35742 6.97266 3.70312 5.92969 4.00781 4.88672H2.67188C2.00391 4.88672 1.33594 4.9043 0.667969 4.93945C0.714844 4.56445 0.714844 4.18945 0.667969 3.81445C1.33594 3.84961 2.00391 3.86719 2.67188 3.86719H4.32422V2.79492C4.32422 1.93945 4.30664 1.08398 4.27148 0.228516C4.72852 0.275391 5.17969 0.275391 5.625 0.228516C5.58984 1.08398 5.57227 1.93945 5.57227 2.79492V3.86719L7.96289 3.81445C7.92773 4.18945 7.92773 4.56445 7.96289 4.93945L5.57227 4.88672V7.08398L6.11719 6.67969C6.89062 7.76953 7.59961 8.92383 8.24414 10.1426L7.04883 10.8105C6.74414 10.2246 6.42188 9.65625 6.08203 9.10547L5.57227 8.31445V14.5898C5.57227 15.4453 5.58984 16.3066 5.625 17.1738C5.17969 17.127 4.72852 17.127 4.27148 17.1738C4.30664 16.3066 4.32422 15.4453 4.32422 14.5898V7.92773C3.42188 10.3535 2.43164 12.3926 1.35352 14.0449V14.0449" fill="#3B82F6"/>
</svg>
