<svg width="17" height="15" viewBox="0 0 17 15" fill="none" xmlns="http://www.w3.org/2000/svg">
<path d="M9.10547 0.342773L4.95703 4.49121C4.67578 4.77246 4.5 5.15918 4.5 5.5459V13.0342C4.5 13.8779 5.20312 14.5459 6.01172 14.5459H12.7617C13.3594 14.5459 13.8867 14.1943 14.1328 13.6318L16.5938 7.93652C17.2266 6.45996 16.1367 4.80762 14.5195 4.80762H10.2656L11.0039 1.3623C11.0742 0.975586 10.9688 0.588867 10.6875 0.342773C10.2305 -0.114258 9.52734 -0.114258 9.10547 0.342773V0.342773M1.51172 14.5459C2.32031 14.5459 3.02344 13.8779 3.02344 13.0342V7.05762C3.02344 6.21387 2.32031 5.5459 1.51172 5.5459C0.703125 5.5459 0 6.21387 0 7.05762V13.0342C0 13.8779 0.703125 14.5459 1.51172 14.5459V14.5459" fill="#CBD5E1"/>
</svg>
