<svg width="18" height="17" viewBox="0 0 18 17" fill="none" xmlns="http://www.w3.org/2000/svg">
<path d="M16.1895 5.47266L11.3613 5.05078L9.48634 0.597656C9.11134 -0.199219 7.98634 -0.199219 7.61134 0.597656L5.73634 5.05078L0.908212 5.47266C0.0175872 5.51953 -0.310538 6.64453 0.345712 7.20703L4.00196 10.3945L2.92384 15.1289C2.68946 15.9727 3.62696 16.6758 4.37696 16.207L8.54884 13.6758L12.7207 16.207C13.4707 16.6758 14.4082 15.9727 14.1738 15.1289L13.0957 10.3945L16.752 7.20703C17.4082 6.64453 17.0801 5.51953 16.1895 5.47266V5.47266M8.54884 11.8477L4.79884 14.0977L5.78321 9.83203L2.45509 6.92578L6.86134 6.55078L8.54884 2.51953L10.2363 6.55078L14.6426 6.92578L11.3145 9.83203L12.2988 14.0977L8.54884 11.8477V11.8477" fill="#E2E8F0"/>
</svg>
