<svg width="15" height="16" viewBox="0 0 15 16" fill="none" xmlns="http://www.w3.org/2000/svg">
<path d="M8.8125 13.75V8.9375H5.28125C4.69792 8.9375 4.11458 8.94792 3.53125 8.96875C3.57292 8.65625 3.57292 8.34375 3.53125 8.03125C4.11458 8.0625 4.69792 8.07812 5.28125 8.07812H8.45312C7.80729 7.47396 7.14583 6.90625 6.46875 6.375L7.21875 5.40625C7.75 5.82292 8.26562 6.25521 8.76562 6.70312L8.57812 6.46875L10.9531 4.5625H6.17188C5.58854 4.5625 5.00521 4.57292 4.42188 4.59375C4.45312 4.28125 4.45312 3.96875 4.42188 3.65625C5.00521 3.6875 5.58854 3.70312 6.17188 3.70312H12.8125L12.9531 4.6875C12.6198 4.77083 12.3177 4.91667 12.0469 5.125L9.375 7.25L10.125 7.98438L10.0469 8.07812H14.5938L14.7188 9.0625C14.5 9.0625 14.3333 9.11458 14.2188 9.21875L12.5781 10.7812L11.8125 9.96875L12.9062 8.9375H9.9375V14.0312C9.91667 14.4688 9.76042 14.8073 9.46875 15.0469C8.95833 15.4427 8.1875 15.6302 7.15625 15.6094C7.27083 15.0885 7.15625 14.6354 6.8125 14.25C7.125 14.2812 7.5 14.2995 7.9375 14.3047C8.375 14.3099 8.63021 14.2839 8.70312 14.2266C8.77604 14.1693 8.8125 14.0104 8.8125 13.75V13.75M2 9.23438V1.82812H7.4375L6.45312 0.890625L7.29688 0L8.875 1.5L8.5625 1.82812H13.1719C13.7552 1.82812 14.3385 1.8125 14.9219 1.78125C14.8906 2.09375 14.8906 2.40625 14.9219 2.71875C14.3385 2.69792 13.7552 2.6875 13.1719 2.6875H3.125V9.23438C3.125 10.6198 2.95573 11.7943 2.61719 12.7578C2.27865 13.7214 1.78125 14.5521 1.125 15.25C0.822917 14.9062 0.447917 14.7135 0 14.6719C0.739583 14.0573 1.25781 13.3125 1.55469 12.4375C1.85156 11.5625 2 10.4948 2 9.23438V9.23438" fill="#191C1E"/>
</svg>
