<svg width="14" height="13" viewBox="0 0 14 13" fill="none" xmlns="http://www.w3.org/2000/svg">
<path d="M4.56667 9.88333L6.66667 8.61667L8.76667 9.9L8.21667 7.5L10.0667 5.9L7.63333 5.68333L6.66667 3.41667L5.7 5.66667L3.26667 5.88333L5.11667 7.5L4.56667 9.88333V9.88333M2.55 12.6667L3.63333 7.98333L0 4.83333L4.8 4.41667L6.66667 0L8.53333 4.41667L13.3333 4.83333L9.7 7.98333L10.7833 12.6667L6.66667 10.1833L2.55 12.6667V12.6667M6.66667 6.83333V6.83333V6.83333V6.83333V6.83333V6.83333V6.83333V6.83333V6.83333V6.83333V6.83333V6.83333" fill="#286C00"/>
</svg>
