<svg width="12" height="12" viewBox="0 0 12 12" fill="none" xmlns="http://www.w3.org/2000/svg">
<path d="M3.77344 5.61328C3.27344 5.61328 2.77344 5.625 2.27344 5.64844C2.29688 5.38281 2.29688 5.11328 2.27344 4.83984C2.77344 4.86328 3.27344 4.875 3.77344 4.875H8.89453V9.99609C8.89453 10.3164 8.76953 10.5859 8.51953 10.8047C8.18359 11.1094 7.55469 11.2578 6.63281 11.25C6.72656 10.8438 6.62891 10.4883 6.33984 10.1836C6.60547 10.2148 6.91797 10.2324 7.27734 10.2363C7.63672 10.2402 7.84961 10.2168 7.91602 10.166C7.98242 10.1152 8.01562 9.97266 8.01562 9.73828V5.61328H5.35547C5.28516 6.91016 4.90039 8.07227 4.20117 9.09961C3.50195 10.127 2.60547 10.8281 1.51172 11.2031C1.26172 10.8359 0.921875 10.582 0.492188 10.4414C0.953125 10.4023 1.41602 10.252 1.88086 9.99023C2.3457 9.72852 2.76758 9.39062 3.14648 8.97656C3.52539 8.5625 3.83398 8.05859 4.07227 7.46484C4.31055 6.87109 4.42578 6.25391 4.41797 5.61328H3.77344V5.61328M11.3906 4.99219C11.0781 5.14062 10.8516 5.37109 10.7109 5.68359C9.55469 5.08984 8.62891 4.26562 7.93359 3.21094C7.32422 2.30469 6.85156 1.30469 6.51562 0.210938L7.27734 0C7.77734 1.72656 8.61328 3.05859 9.78516 3.99609C10.2852 4.38672 10.8203 4.71875 11.3906 4.99219V4.99219M3.80859 0.210938C4.13672 0.34375 4.47656 0.4375 4.82812 0.492188C4.45312 1.5625 3.96094 2.55469 3.35156 3.46875C2.65625 4.52344 1.77734 5.39844 0.714844 6.09375C0.558594 5.76562 0.320312 5.51562 0 5.34375C0.945312 4.77344 1.73438 4.10547 2.36719 3.33984C2.63281 3.01953 2.83984 2.70703 2.98828 2.40234C3.31641 1.70703 3.58984 0.976562 3.80859 0.210938V0.210938" fill="#1D4ED8"/>
</svg>
