<svg width="30" height="21" viewBox="0 0 30 21" fill="none" xmlns="http://www.w3.org/2000/svg">
<path d="M4 20.8C5.03333 20.8 5.87917 20.5417 6.5375 20.025C7.19583 19.5083 7.7 18.75 8.05 17.75C8.33333 16.9167 8.60417 16.3333 8.8625 16C9.12083 15.6667 9.71667 15.1333 10.65 14.4C11.6833 13.5667 12.5 12.625 13.1 11.575C13.7 10.525 14 9.26667 14 7.8C14 5.81667 13.3292 4.15417 11.9875 2.8125C10.6458 1.47083 8.98333 0.8 7 0.8C5.01667 0.8 3.35417 1.47083 2.0125 2.8125C0.670833 4.15417 0 5.81667 0 7.8H2C2 6.38333 2.47917 5.19583 3.4375 4.2375C4.39583 3.27917 5.58333 2.8 7 2.8C8.41667 2.8 9.60417 3.27917 10.5625 4.2375C11.5208 5.19583 12 6.38333 12 7.8C12 8.93333 11.775 9.9 11.325 10.7C10.875 11.5 10.2333 12.2167 9.4 12.85C8.53333 13.4833 7.85833 14.1 7.375 14.7C6.89167 15.3 6.53333 15.95 6.3 16.65C6.06667 17.3833 5.7875 17.925 5.4625 18.275C5.1375 18.625 4.65 18.8 4 18.8C3.45 18.8 2.97917 18.6042 2.5875 18.2125C2.19583 17.8208 2 17.35 2 16.8H0C0 17.9 0.391667 18.8417 1.175 19.625C1.95833 20.4083 2.9 20.8 4 20.8V20.8M14.8 15.55C15.7833 14.55 16.5625 13.3875 17.1375 12.0625C17.7125 10.7375 18 9.31667 18 7.8C18 6.26667 17.7125 4.83333 17.1375 3.5C16.5625 2.16667 15.7833 1 14.8 0L13.35 1.4C14.1833 2.23333 14.8333 3.19583 15.3 4.2875C15.7667 5.37917 16 6.55 16 7.8C16 9.03333 15.7667 10.1917 15.3 11.275C14.8333 12.3583 14.1833 13.3167 13.35 14.15L14.8 15.55V15.55M7 10.3C7.7 10.3 8.29167 10.0542 8.775 9.5625C9.25833 9.07083 9.5 8.48333 9.5 7.8C9.5 7.1 9.25833 6.50833 8.775 6.025C8.29167 5.54167 7.7 5.3 7 5.3C6.3 5.3 5.70833 5.54167 5.225 6.025C4.74167 6.50833 4.5 7.1 4.5 7.8C4.5 8.48333 4.74167 9.07083 5.225 9.5625C5.70833 10.0542 6.3 10.3 7 10.3V10.3" fill="#E0E3E6"/>
</svg>
